<svg width="22" height="22" viewBox="0 0 22 22" fill="none" xmlns="http://www.w3.org/2000/svg">
<g clip-path="url(#clip0_58_13)">
<rect width="22" height="22" fill="url(#paint0_linear_58_13)"/>
<path d="M9.49812 12.2417L2.44963 12.1771L2.41992 15.1606L9.46842 15.2252L9.49812 12.2417ZM12.5189 12.2694L9.49812 12.2417L9.56745 5.28003L12.5882 5.3077L12.5189 12.2694ZM12.5189 12.2694L19.5674 12.3339L19.5377 15.3174L12.4892 15.2528L12.5189 12.2694Z" fill="url(#paint1_linear_58_13)"/>
<path d="M11.0462 11.6684L6.10974 6.84265L3.8891 8.93214L8.82554 13.7579L11.0462 11.6684ZM13.1618 13.7366L11.0462 11.6684L16.2278 6.79281L18.3434 8.86099L13.1618 13.7366Z" fill="url(#paint2_linear_58_13)"/>
</g>
<defs>
<linearGradient id="paint0_linear_58_13" x1="11" y1="0" x2="11" y2="22" gradientUnits="userSpaceOnUse">
<stop stop-color="white"/>
<stop offset="1" stop-color="#D4D4D4"/>
</linearGradient>
<linearGradient id="paint1_linear_58_13" x1="10.9937" y1="5.28003" x2="10.9937" y2="20.6519" gradientUnits="userSpaceOnUse">
<stop stop-color="#FF0000"/>
<stop offset="1" stop-color="#990000"/>
</linearGradient>
<linearGradient id="paint2_linear_58_13" x1="7.59024" y1="5.44958" x2="19.0691" y2="17.6489" gradientUnits="userSpaceOnUse">
<stop stop-color="#FF0000"/>
<stop offset="1" stop-color="#990000"/>
</linearGradient>
<clipPath id="clip0_58_13">
<rect width="22" height="22" rx="3" fill="white"/>
</clipPath>
</defs>
</svg>
